<svg xmlns="http://www.w3.org/2000/svg" viewBox="0 0 64 64" role="img" aria-label="Structure-X">
  <defs>
    <linearGradient id="bg" x1="0" x2="1" y1="0" y2="1">
      <stop offset="0" stop-color="#0f172a"/>
      <stop offset="1" stop-color="#020617"/>
    </linearGradient>
    <linearGradient id="blue" x1="0" x2="1" y1="0" y2="1">
      <stop offset="0" stop-color="#7dd3fc"/>
      <stop offset="0.45" stop-color="#0284c7"/>
      <stop offset="1" stop-color="#1d4ed8"/>
    </linearGradient>
    <linearGradient id="steel" x1="0" x2="1" y1="0" y2="1">
      <stop offset="0" stop-color="#ffffff"/>
      <stop offset="0.45" stop-color="#cbd5e1"/>
      <stop offset="1" stop-color="#475569"/>
    </linearGradient>
    <filter id="glow" x="-40%" y="-40%" width="180%" height="180%">
      <feDropShadow dx="0" dy="0" stdDeviation="2.4" flood-color="#38bdf8" flood-opacity="0.72"/>
      <feDropShadow dx="0" dy="4" stdDeviation="4" flood-color="#000000" flood-opacity="0.58"/>
    </filter>
  </defs>
  <rect width="64" height="64" rx="14" fill="url(#bg)"/>
  <g filter="url(#glow)">
    <path d="M11 41V28l8-7 6 5v15z" fill="url(#blue)" stroke="#dbeafe" stroke-width="1.4"/>
    <path d="M23 41V19l9-8 8 9v21z" fill="url(#blue)" stroke="#dbeafe" stroke-width="1.4"/>
    <path d="M16.5 26.5h4.5V41h-4.5zM30 17h5v24h-5z" fill="url(#steel)" opacity="0.92"/>
    <path d="M14 43 30 34 18 25l20 8 16-12-12 15 13 10-19-7-18 12z" fill="#020617" stroke="#f8fafc" stroke-width="3" stroke-linejoin="round"/>
    <path d="M19 43 32 36 22 28l17 7 13-10-10 12 11 8-16-6-15 10z" fill="url(#steel)" stroke="#0f172a" stroke-width="1.2" stroke-linejoin="round"/>
    <path d="M31 36.5 38 39l-6 4-7-3z" fill="url(#blue)"/>
  </g>
</svg>
